<?xml version="1.0" standalone="no"?>
<!DOCTYPE svg PUBLIC "-//W3C//DTD SVG 20010904//EN"
 "http://www.w3.org/TR/2001/REC-SVG-20010904/DTD/svg10.dtd">
<svg version="1.0" xmlns="http://www.w3.org/2000/svg"
 width="449.000000pt" height="458.000000pt" viewBox="0 0 449.000000 458.000000"
 preserveAspectRatio="xMidYMid meet">

<g transform="translate(0.000000,458.000000) scale(0.100000,-0.100000)"
fill="#000000" stroke="none">
<path d="M0 2290 l0 -2290 2245 0 2245 0 0 2290 0 2290 -2245 0 -2245 0 0
-2290z m2225 1778 c-14 -44 -34 -194 -34 -259 -1 -64 -2 -67 -28 -73 -16 -4
-35 -9 -44 -12 -13 -3 -19 12 -33 83 -19 93 -22 112 -32 183 -3 24 -8 48 -10
52 -7 11 11 18 79 33 95 21 111 20 102 -7z m180 1 c22 -6 52 -15 67 -20 l27
-11 -50 -49 c-45 -46 -139 -212 -139 -247 0 -14 -5 -14 -50 -5 l-33 6 6 151
c9 206 7 200 76 191 31 -3 74 -11 96 -16z m-384 -114 c5 -22 18 -86 28 -142
l18 -103 -33 -19 -33 -20 -54 102 c-29 56 -50 104 -47 107 12 9 19 40 10 40
-6 0 -10 -7 -10 -15 0 -26 -17 -17 -30 16 -15 35 -21 29 79 86 55 32 56 32 59
10 1 -12 7 -40 13 -62z m-124 -180 l67 -134 -24 -26 c-13 -14 -29 -25 -35 -25
-14 0 -47 34 -40 42 3 2 -1 5 -7 5 -10 0 -124 79 -156 108 -8 7 111 165 124
165 2 0 34 -61 71 -135z m783 0 c0 -6 -31 -36 -70 -68 -38 -31 -77 -71 -85
-88 -16 -29 -16 -33 1 -48 15 -13 16 -13 6 0 -9 13 -3 21 36 51 105 78 111 81
130 66 15 -11 16 -11 5 3 -12 15 -8 29 8 29 9 0 42 -59 59 -105 9 -23 6 -25
-57 -45 -113 -35 -183 -70 -183 -92 0 -15 4 -18 18 -13 21 8 240 75 246 75 7
0 24 -92 32 -171 l6 -76 -68 -7 c-38 -4 -83 -9 -99 -12 -28 -5 -32 -2 -44 33
-9 24 -46 70 -106 129 -87 86 -91 93 -87 127 5 47 61 138 136 222 l58 66 29
-33 c15 -18 28 -38 29 -43z m-907 -147 c-3 -7 -1 -8 5 -4 7 4 31 -9 56 -30
l44 -37 -30 -58 c-17 -33 -36 -59 -42 -59 -6 0 -53 7 -103 17 -72 13 -93 21
-93 33 0 23 28 116 52 172 l20 47 49 -36 c27 -19 46 -40 42 -45z m510 -3 c27
-11 43 -26 53 -52 8 -19 14 -37 12 -38 -4 -5 -97 23 -121 36 -11 6 -25 6 -38
-1 -20 -11 -108 -40 -122 -40 -4 0 2 18 13 40 16 32 32 46 73 64 54 24 55 24
130 -9z m-91 -170 c9 -3 37 1 62 9 58 20 56 20 57 -1 1 -16 2 -16 6 -1 11 41
142 -42 195 -125 37 -57 63 -111 51 -105 -5 1 -64 33 -133 70 -69 36 -146 77
-172 89 l-47 23 -93 -47 c-51 -25 -130 -66 -175 -91 -74 -41 -81 -43 -78 -24
7 35 69 129 82 124 7 -3 10 1 6 10 -3 7 0 14 6 14 5 0 19 10 30 21 43 47 135
62 203 34z m-1332 -70 c189 -43 253 -60 272 -71 9 -5 76 -65 149 -134 209
-196 195 -181 175 -192 -36 -20 -76 3 -192 110 -91 86 -117 115 -126 147 l-11
40 -141 35 c-78 18 -174 44 -213 56 -49 15 -73 18 -73 10 0 -6 34 -112 76
-236 l76 -225 115 -113 116 -114 -20 -26 c-10 -14 -24 -27 -29 -29 -5 -2 -55
43 -112 100 l-103 103 -70 274 c-38 151 -72 283 -75 293 -5 15 -2 18 13 14 10
-3 88 -22 173 -42z m765 35 c3 -5 1 -10 -4 -10 -6 0 -11 -5 -11 -12 0 -6 8 -4
19 6 18 16 24 16 91 2 39 -8 74 -17 77 -19 2 -3 -7 -50 -20 -105 -14 -54 -29
-131 -32 -169 -7 -68 -8 -71 -43 -87 -42 -20 -43 -19 -73 74 -25 74 -40 330
-21 330 6 0 14 -4 17 -10z m2119 -12 c-4 -13 -38 -144 -75 -292 l-67 -268 -43
-44 c-23 -24 -46 -41 -51 -38 -5 3 -8 2 -7 -3 4 -21 -2 -24 -18 -12 -16 12
-17 12 -6 -2 10 -13 4 -23 -37 -64 l-49 -48 -25 29 c-14 16 -26 31 -26 35 0 3
51 53 113 112 l113 106 26 83 c23 73 106 313 109 313 0 0 2 9 4 19 2 11 6 30
10 43 5 21 3 22 -22 12 -43 -17 -361 -99 -381 -99 -13 0 -23 -13 -33 -44 -11
-36 -37 -66 -131 -154 -109 -103 -118 -109 -153 -106 -20 1 -40 5 -43 9 -7 7
115 125 129 125 6 0 8 4 5 9 -7 11 22 23 35 16 5 -4 6 0 3 8 -3 9 26 42 78 90
l83 76 185 45 c102 24 203 49 225 54 57 14 57 14 49 -10z m-1345 -152 c96 -51
177 -98 179 -104 2 -8 -9 -10 -40 -6 -30 4 -68 0 -118 -14 -41 -12 -94 -26
-117 -32 -41 -10 -43 -12 -64 -80 -13 -39 -26 -70 -29 -70 -4 0 -18 32 -31 72
l-24 72 -90 22 c-50 13 -100 26 -112 29 -22 5 -23 3 -22 -72 0 -43 3 -73 5
-66 4 8 34 -7 87 -43 l82 -55 -4 -126 c-2 -69 -5 -133 -6 -142 -2 -9 -4 -60
-4 -114 -1 -67 -4 -96 -12 -92 -6 4 -8 13 -5 21 3 8 0 11 -8 8 -13 -5 -123
111 -205 215 l-42 54 6 108 c4 59 7 155 8 214 l1 105 45 27 c101 60 307 162
326 162 11 0 99 -42 194 -93z m-1574 44 c3 -5 16 -10 28 -10 40 -1 219 -56
228 -71 5 -8 9 -22 9 -32 0 -10 39 -55 87 -100 49 -45 110 -103 138 -129 l50
-47 -25 -26 c-15 -16 -32 -24 -42 -22 -10 3 -15 1 -12 -5 3 -5 -6 -23 -21 -38
l-28 -29 -26 39 c-14 22 -33 40 -43 40 -25 0 -43 37 -28 56 7 7 16 11 21 8 5
-3 9 -2 8 3 -5 29 7 26 47 -13 66 -63 69 -55 4 11 -30 30 -58 55 -62 55 -4 0
-22 -13 -40 -29 -32 -27 -34 -28 -52 -10 -10 10 -16 24 -13 32 3 7 -1 14 -9
14 -7 0 -10 -5 -7 -11 3 -6 -8 2 -25 18 -19 18 -28 34 -25 45 4 9 3 13 -2 9
-4 -4 -20 1 -34 11 -14 10 -36 21 -47 25 -15 5 -31 31 -55 94 -19 48 -34 92
-34 97 0 6 -4 13 -10 17 -6 5 -6 8 2 8 6 0 15 -4 18 -10z m2785 -10 c0 -5 -2
-10 -4 -10 -3 0 -8 5 -11 10 -3 6 -1 10 4 10 6 0 11 -4 11 -10z m-28 -24 c-2
-11 1 -15 7 -11 6 3 2 -18 -10 -47 -12 -29 -26 -65 -31 -79 -6 -18 -19 -29
-36 -32 -15 -3 -28 -4 -30 -2 -1 1 -6 21 -10 45 l-7 42 -73 -67 c-39 -37 -72
-72 -72 -78 0 -7 7 -3 15 7 8 11 15 15 15 8 0 -6 6 -9 14 -6 7 3 20 -2 29 -10
8 -8 17 -12 21 -9 3 4 6 1 6 -5 0 -6 -11 -19 -26 -28 -20 -14 -27 -15 -37 -4
-9 10 -9 11 0 6 6 -3 14 -2 18 3 3 6 -5 8 -20 5 -15 -3 -25 0 -25 7 0 8 -5 7
-16 -2 -15 -12 -14 -15 9 -35 l26 -22 -25 -23 c-25 -24 -31 -13 -13 24 10 21
10 21 -5 3 -9 -11 -16 -24 -16 -29 0 -5 -8 -6 -17 -3 -10 4 -14 4 -10 0 4 -4
2 -13 -4 -20 -7 -8 -6 -14 2 -20 7 -4 9 -3 5 4 -3 6 -2 13 3 16 20 13 19 -12
-1 -30 -12 -11 -18 -13 -13 -5 6 11 4 13 -8 8 -8 -3 -20 0 -25 6 -12 15 16 53
38 52 8 0 20 8 27 20 15 25 16 38 3 30 -6 -4 -7 1 -3 11 4 12 -8 6 -35 -16
-23 -18 -42 -40 -42 -47 0 -8 -4 -12 -9 -8 -13 7 -53 -46 -47 -62 3 -7 1 -13
-4 -13 -6 0 -10 4 -10 10 0 5 -6 7 -14 4 -7 -3 -26 6 -42 20 l-29 26 65 62
c36 35 95 91 131 125 38 35 72 77 80 99 14 36 17 38 114 65 115 31 141 33 137
5z m-758 -48 c-8 -47 -34 -138 -49 -175 l-14 -32 -44 16 -45 16 -6 71 c-3 39
-9 86 -12 104 l-6 32 91 0 91 0 -6 -32z m-280 -130 c-5 -7 -3 -8 5 -4 7 5 18
0 26 -10 11 -15 14 -59 15 -189 l0 -171 -99 -114 c-54 -63 -112 -128 -129
-143 l-30 -29 -7 215 c-4 118 -5 220 -1 225 3 6 0 12 -6 15 -9 3 -10 9 -3 20
13 22 165 119 165 107 0 -6 4 -10 9 -10 4 0 7 14 5 32 -6 48 4 68 32 68 17 0
23 -4 18 -12z m-1012 -146 c-15 -13 -52 -42 -82 -65 -30 -23 -85 -69 -122
-104 -37 -35 -70 -63 -73 -63 -22 0 44 76 152 173 113 103 128 114 140 99 11
-15 8 -20 -15 -40z m1613 -184 c48 -57 24 -50 -45 13 -39 35 -92 78 -118 95
-26 18 -65 48 -87 67 -34 30 -38 37 -26 50 12 15 26 5 132 -90 66 -58 131
-119 144 -135z m-1405 185 l-1 -48 -29 35 -29 35 27 12 c15 7 28 12 30 13 1 0
2 -21 2 -47z m984 -2 c-46 -70 -44 -70 -44 -9 l0 57 30 -11 c31 -10 31 -10 14
-37z m482 -33 c4 -7 3 -8 -4 -4 -19 11 -14 -2 8 -24 26 -26 25 -41 -6 -64 -26
-18 -26 -18 -48 3 -14 15 -16 21 -6 19 8 -2 15 5 16 17 1 21 21 65 29 65 2 0
7 -5 11 -12z m-1686 -147 c0 -4 -11 -13 -24 -19 -19 -9 -27 -8 -36 4 -7 8 -18
14 -24 14 -6 0 -45 -34 -86 -75 -41 -42 -83 -80 -92 -85 -17 -10 -51 -3 -46
10 2 4 54 55 117 113 l114 106 39 -30 c21 -17 38 -34 38 -38z m1614 -79 c61
-63 76 -92 45 -92 -6 0 -48 36 -95 81 -55 53 -88 78 -96 72 -20 -12 -38 -12
-64 -1 -32 15 -30 21 13 57 l36 30 46 -39 c25 -21 77 -70 115 -108z m-1674 46
c0 -6 -6 -5 -15 2 -8 7 -15 14 -15 16 0 2 7 1 15 -2 8 -4 15 -11 15 -16z m140
-40 l60 -52 -52 -13 c-41 -11 -54 -11 -66 -1 -9 7 -13 8 -9 2 3 -6 -4 -21 -18
-34 l-24 -22 -35 27 -36 27 32 45 c26 36 67 70 86 73 2 0 30 -23 62 -52z
m1319 31 c23 -14 32 -25 28 -38 -3 -12 1 -18 12 -17 9 0 16 -7 16 -16 0 -9 4
-20 9 -25 5 -5 6 -2 1 6 -6 10 -4 12 4 6 9 -5 4 -16 -18 -37 l-30 -30 -34 26
c-19 14 -36 24 -39 21 -3 -3 -29 1 -58 8 l-52 14 58 51 c33 29 61 52 64 52 3
0 20 -9 39 -21z m-1146 -163 c-7 -45 16 -83 99 -163 80 -76 156 -125 254 -163
l77 -29 72 28 c113 43 194 94 266 164 78 74 102 116 97 163 -3 29 -1 34 17 34
52 0 92 -69 75 -130 -10 -36 -67 -119 -86 -127 -8 -3 -12 -9 -9 -13 4 -7 -17
-30 -42 -44 -6 -3 -1 21 13 54 32 78 31 81 -12 32 -48 -57 -128 -132 -196
-185 -32 -24 -55 -47 -52 -50 8 -8 -34 -29 -76 -38 l-35 -8 27 20 c14 11 37
28 50 39 l23 19 -42 -2 c-24 -1 -43 -6 -43 -11 0 -13 -123 -1 -128 12 -2 7 -8
10 -12 7 -13 -8 -80 27 -73 38 3 6 1 7 -6 3 -17 -11 -115 57 -188 130 -35 34
-63 59 -63 56 0 -4 18 -39 39 -79 l38 -72 -34 26 c-30 23 -37 35 -34 56 0 4
-4 6 -11 5 -7 -2 -31 26 -55 60 -34 51 -43 73 -43 106 0 51 35 96 74 96 23 0
24 -3 19 -34z m-183 -96 c10 -5 44 -46 75 -90 31 -44 78 -104 105 -133 27 -30
46 -58 42 -62 -4 -5 -2 -5 4 -2 6 3 26 -10 45 -29 68 -71 214 -162 311 -193
32 -11 44 -9 115 18 86 34 159 79 245 153 31 27 61 49 65 49 4 -1 8 4 8 10 0
6 26 41 57 77 32 37 79 99 106 137 43 64 51 70 80 68 89 -4 83 -82 -15 -225
-25 -37 -50 -65 -54 -62 -5 3 -6 -1 -3 -9 3 -9 -17 -38 -50 -73 l-55 -59 34
85 c35 88 54 163 38 145 -5 -5 -35 -42 -67 -82 -154 -192 -323 -303 -462 -303
-93 0 -238 70 -354 170 -73 63 -174 186 -167 203 3 7 -3 13 -14 13 -21 0 -20
-11 16 -119 l22 -68 -34 33 c-18 18 -31 38 -28 46 2 7 1 11 -4 8 -12 -8 -83
102 -75 116 4 7 3 8 -5 4 -12 -8 -54 72 -45 86 3 4 1 8 -5 8 -16 0 -23 40 -10
57 11 12 40 29 57 32 2 1 12 -3 22 -9z m-370 -74 c0 -2 -27 -27 -59 -54 -33
-27 -58 -52 -55 -54 2 -3 -4 -5 -13 -5 -10 0 -36 13 -57 28 l-39 29 46 20 c60
27 177 50 177 36z m2083 -11 c32 -8 72 -22 88 -31 l31 -15 -34 -25 c-60 -46
-62 -46 -99 -7 -19 20 -27 33 -19 29 18 -9 -16 22 -51 46 l-24 17 25 0 c14 1
52 -6 83 -14z m-1881 -12 c24 -28 89 -176 81 -184 -5 -4 -54 -23 -110 -42 -56
-20 -110 -40 -120 -45 -13 -8 -24 -4 -47 14 -16 14 -42 28 -58 31 -37 7 -42
20 -28 71 12 48 75 108 153 147 59 29 108 32 129 8z m1726 -19 c73 -43 121
-92 133 -136 12 -47 7 -68 -18 -68 -10 0 -35 -11 -55 -25 l-37 -25 -123 41
c-68 23 -127 45 -131 49 -8 7 31 100 46 111 5 3 8 9 8 13 -3 17 1 26 21 51 19
25 25 27 66 21 25 -3 65 -18 90 -32z m-2171 -147 c18 -38 20 -55 15 -164 l-5
-123 74 24 c241 79 363 116 378 116 49 0 20 -18 -91 -57 -165 -57 -451 -144
-456 -138 -17 17 38 385 57 385 4 0 16 -19 28 -43z m2513 -5 c33 -116 52 -349
28 -339 -7 2 -67 21 -133 42 -256 79 -425 137 -425 147 0 11 71 4 98 -11 9 -5
80 -28 157 -51 77 -23 144 -46 149 -51 6 -5 23 -9 38 -9 28 0 28 0 28 68 0 37
-5 84 -9 106 -8 33 -5 47 17 92 14 29 29 51 33 48 5 -3 13 -21 19 -42z m-2302
-127 c11 -10 3 -16 -49 -34 -34 -11 -64 -19 -66 -17 -9 9 28 65 44 69 23 6 55
-2 71 -18z m2137 0 c26 -25 34 -61 13 -53 -7 3 -37 13 -66 22 -53 18 -58 30
-18 46 34 14 45 12 71 -15z m-1620 -142 c16 -21 42 -53 58 -70 l31 -33 -25 0
c-13 0 -40 -3 -60 -6 -34 -6 -36 -5 -48 35 -6 23 -9 47 -5 53 4 6 3 8 -3 5 -6
-4 -13 3 -16 15 -6 22 6 38 29 38 7 0 24 -17 39 -37z m1045 27 c0 -5 7 -7 15
-4 20 8 20 -19 -1 -79 l-16 -47 -59 0 -59 0 52 70 c50 66 68 82 68 60z m266
-100 c147 -46 201 -78 118 -71 -24 1 -44 6 -44 10 0 3 -24 6 -53 7 -28 0 -82
4 -119 8 l-68 8 0 50 c0 39 3 48 13 41 6 -5 76 -29 153 -53z m-1456 23 c0 -16
3 -37 6 -48 5 -19 -3 -21 -156 -39 -88 -10 -162 -17 -165 -15 -13 14 38 40
155 80 74 25 141 47 148 47 7 1 12 -9 12 -25z m567 -29 c-3 -3 -12 -4 -19 -1
-8 3 -5 6 6 6 11 1 17 -2 13 -5z m-1087 -104 c-8 -6 -22 -10 -30 -9 -9 0 -5 6
10 14 27 14 44 10 20 -5z m2361 2 c-7 -2 -18 1 -23 6 -8 8 -4 9 13 5 13 -4 18
-8 10 -11z m-981 -38 c18 -18 27 -143 11 -172 -9 -17 -22 -22 -69 -24 l-57 -3
0 -60 0 -60 -32 -3 -33 -3 0 108 c0 59 -3 138 -6 174 l-7 67 89 -5 c56 -3 94
-10 104 -19z m-541 -1 c24 -16 24 -17 17 -157 -5 -104 -10 -145 -21 -156 -9
-8 -43 -17 -82 -20 -90 -8 -103 5 -102 98 1 104 13 210 27 224 11 11 67 24
117 27 11 0 31 -6 44 -16z m303 0 c24 -22 23 -49 -4 -67 -30 -21 -38 -20 -38
4 0 16 -7 20 -30 20 -27 0 -30 -3 -30 -30 0 -25 7 -33 43 -51 69 -35 77 -46
77 -106 0 -73 -21 -93 -95 -93 -46 0 -60 4 -80 25 -33 32 -32 63 1 75 29 11
44 6 44 -16 0 -9 11 -14 30 -14 26 0 30 4 30 28 0 23 -9 32 -58 57 l-57 30 -3
59 c-4 80 11 96 91 96 42 0 66 -5 79 -17z m407 -15 c26 -83 82 -310 77 -315
-2 -3 -18 -2 -35 2 -21 4 -32 15 -40 36 -14 42 -56 41 -64 -1 -6 -25 -11 -30
-37 -30 -36 0 -36 -6 -10 157 31 197 27 183 65 183 29 0 35 -4 44 -32z m268
-2 c18 -17 24 -37 29 -103 6 -71 5 -83 -10 -89 -21 -8 -20 -21 5 -83 12 -28
19 -54 16 -57 -3 -3 -19 -3 -34 0 -25 6 -33 16 -54 71 -32 87 -55 89 -51 4 l4
-60 -34 3 -33 3 -6 80 c-4 44 -9 121 -13 172 l-7 92 83 -5 c66 -5 88 -11 105
-28z m-1187 -11 c0 -32 -3 -35 -29 -35 l-29 0 -7 -87 c-17 -213 -16 -208 -54
-211 l-33 -3 6 78 c3 43 9 109 12 147 l6 69 -31 -5 c-29 -4 -31 -3 -31 29 0
36 8 40 95 46 28 2 60 4 73 5 19 2 22 -3 22 -33z m1342 20 c67 -6 77 -9 82
-28 10 -40 7 -47 -24 -47 -16 0 -30 -3 -30 -7 1 -5 9 -70 19 -145 l17 -138
-32 0 c-40 0 -40 -1 -55 158 -12 127 -22 152 -60 152 -12 0 -19 7 -19 19 0 11
-3 27 -7 36 -5 13 -2 16 13 12 10 -3 53 -8 96 -12z m-1578 -31 c19 -18 19 -33
5 -183 -13 -142 -23 -155 -118 -170 -79 -13 -101 -3 -101 42 0 42 27 258 35
278 16 41 148 65 179 33z m1802 2 c4 -8 105 -339 110 -360 7 -29 6 -29 -27
-22 -35 7 -49 20 -49 49 0 10 -12 22 -26 27 -33 13 -34 13 -34 -7 0 -33 -16
-46 -48 -38 -27 6 -30 9 -27 38 3 18 9 93 15 167 7 74 13 141 15 147 3 9 15
11 37 6 18 -3 33 -6 34 -7z m-2026 -18 c1 -38 -34 -354 -39 -359 -3 -4 -21
-10 -39 -14 l-33 -7 6 79 c7 87 5 86 -47 -9 -17 -32 -34 -58 -37 -58 -4 0 -15
24 -25 53 -11 28 -22 56 -26 60 -4 5 -13 -24 -20 -65 -7 -40 -14 -78 -16 -85
-3 -11 -64 -34 -73 -27 -2 2 11 93 30 203 l34 200 34 6 c18 4 37 3 41 -2 4 -4
13 -36 20 -71 7 -34 16 -64 19 -66 3 -3 26 33 50 79 24 46 51 86 60 88 33 9
61 7 61 -5z m2154 2 c7 0 36 -39 65 -86 29 -47 55 -84 57 -81 2 2 0 28 -6 57
-15 80 -14 90 15 90 13 0 29 -8 34 -18 12 -23 67 -379 59 -387 -3 -3 -17 -3
-31 1 -20 5 -38 27 -77 100 -28 52 -52 94 -53 94 -2 0 0 -26 4 -57 13 -104 13
-106 -18 -98 -36 9 -39 15 -47 89 -10 90 -36 268 -43 290 -4 15 -2 18 12 13 9
-4 22 -7 29 -7z m-1163 -682 c1 -156 1 -291 0 -300 -1 -10 3 -18 8 -18 6 0 11
4 11 8 0 4 13 23 28 42 19 23 29 28 29 17 0 -9 -4 -14 -8 -11 -4 2 -10 0 -13
-5 -4 -5 2 -8 11 -7 21 3 20 -15 22 296 l1 251 58 -3 57 -3 3 -260 2 -259 -62
-63 c-34 -34 -65 -60 -70 -57 -5 3 -7 0 -6 -8 2 -7 -3 -12 -10 -10 -8 1 -11
-1 -8 -6 3 -5 -6 -20 -19 -32 l-25 -23 -25 23 c-19 18 -22 26 -13 32 10 6 7
25 -15 85 -28 78 -28 78 -27 327 0 137 3 253 6 257 3 5 18 9 35 9 l29 0 1
-282z m-364 200 c47 -47 63 -69 63 -90 0 -15 -4 -28 -9 -28 -12 0 -159 138
-172 161 -9 17 -6 19 23 19 26 0 44 -12 95 -62z m863 53 c0 -12 -118 -131
-157 -159 l-33 -23 0 33 c0 26 10 43 48 80 27 27 53 45 58 40 5 -4 6 -3 2 2
-14 16 13 36 48 36 19 0 34 -4 34 -9z m-1098 -22 c-2 -8 0 -11 4 -7 4 5 50
-34 103 -85 53 -51 117 -108 144 -127 44 -31 47 -36 47 -77 l0 -43 -88 74
c-98 82 -282 259 -282 271 0 4 6 5 13 2 8 -3 20 -1 28 4 18 11 35 5 31 -12z
m1262 12 c16 -6 12 -15 -39 -69 -31 -34 -62 -59 -68 -55 -5 3 -7 1 -4 -4 7
-11 -112 -120 -126 -115 -5 1 -6 -2 -3 -7 3 -5 -9 -20 -27 -34 -17 -13 -44
-37 -59 -52 l-28 -28 0 49 c0 45 3 51 38 74 20 14 78 64 128 112 50 49 94 85
98 80 4 -4 6 -2 5 3 -2 6 2 20 9 33 13 22 40 27 76 13z m-1447 -47 c-2 -2 -75
-31 -163 -64 -87 -34 -211 -82 -274 -107 -63 -25 -121 -47 -127 -50 -9 -3 -13
5 -13 24 0 35 2 36 200 109 187 68 352 114 368 102 7 -6 11 -12 9 -14z m1848
-48 c61 -20 155 -53 210 -75 95 -37 100 -40 103 -70 l3 -31 -53 20 c-29 11
-55 20 -57 20 -2 0 0 7 3 16 5 13 4 14 -7 6 -10 -9 -37 -2 -109 26 -53 20 -97
42 -98 47 -1 6 -4 12 -7 15 -4 3 -3 -1 1 -7 10 -18 0 -17 -81 13 -42 16 -70
31 -66 37 3 5 1 7 -4 4 -6 -4 -32 1 -58 10 -43 14 -46 17 -31 29 19 13 40 9
251 -60z m-1111 -521 c11 -8 16 -15 10 -15 -5 0 -18 7 -28 15 -11 8 -16 15
-10 15 5 0 18 -7 28 -15z"/>
<path d="M2557 3419 c7 -7 15 -10 18 -7 3 3 -2 9 -12 12 -14 6 -15 5 -6 -5z"/>
<path d="M1651 3584 c0 -11 3 -14 6 -6 3 7 2 16 -1 19 -3 4 -6 -2 -5 -13z"/>
<path d="M2003 2915 c0 -8 4 -12 9 -9 5 3 6 10 3 15 -9 13 -12 11 -12 -6z"/>
<path d="M2030 2910 c0 -5 5 -10 11 -10 5 0 7 5 4 10 -3 6 -8 10 -11 10 -2 0
-4 -4 -4 -10z"/>
<path d="M1980 2573 c0 -4 10 -19 21 -33 11 -14 18 -18 14 -10 -6 13 -5 13 7
0 28 -32 46 -42 54 -29 4 8 3 9 -5 5 -6 -4 -14 -1 -17 8 -7 17 -74 71 -74 59z"/>
<path d="M929 3197 c6 -8 7 -17 3 -21 -4 -4 0 -6 8 -4 8 2 14 -3 13 -9 -2 -7
5 -13 14 -13 13 0 10 7 -12 30 -29 30 -47 42 -26 17z"/>
<path d="M1020 3106 c0 -2 8 -10 18 -17 15 -13 16 -12 3 4 -13 16 -21 21 -21
13z"/>
<path d="M1080 3053 c13 -18 26 -30 29 -28 3 3 -8 18 -23 33 l-29 27 23 -32z"/>
<path d="M1151 2903 c7 -12 15 -20 18 -17 3 2 -3 12 -13 22 -17 16 -18 16 -5
-5z"/>
<path d="M3358 3023 c7 -3 16 -2 19 1 4 3 -2 6 -13 5 -11 0 -14 -3 -6 -6z"/>
<path d="M2400 2545 c-18 -19 -31 -37 -29 -40 3 -2 21 11 39 30 18 19 31 37
29 40 -3 2 -21 -11 -39 -30z"/>
<path d="M1476 2658 c3 -5 10 -6 15 -3 13 9 11 12 -6 12 -8 0 -12 -4 -9 -9z"/>
<path d="M1655 1940 c-3 -6 1 -7 9 -4 18 7 21 14 7 14 -6 0 -13 -4 -16 -10z"/>
<path d="M2300 1615 c0 -45 0 -45 35 -45 35 0 35 0 35 45 0 45 0 45 -35 45
-35 0 -35 0 -35 -45z"/>
<path d="M1766 1598 c-3 -29 -6 -79 -6 -110 0 -49 3 -58 18 -58 40 1 47 16 50
120 l4 100 -30 0 c-28 0 -30 -2 -36 -52z"/>
<path d="M2547 1550 c-10 -38 -8 -50 8 -50 16 0 17 10 6 50 l-7 25 -7 -25z"/>
<path d="M2750 1605 c0 -38 3 -45 19 -45 11 0 26 -3 35 -6 12 -5 16 0 16 22 0
56 -10 74 -41 74 -28 0 -29 -2 -29 -45z"/>
<path d="M1333 1603 c-19 -4 -22 -13 -28 -86 -3 -45 -8 -94 -11 -109 -5 -26
-3 -28 29 -28 40 0 40 1 53 153 7 82 8 80 -43 70z"/>
<path d="M3217 1494 c-14 -14 -8 -64 8 -64 16 0 17 10 6 48 -3 13 -9 20 -14
16z"/>
</g>
</svg>
